<?xml version="1.0" encoding="utf-8"?>
<!-- Generator: Adobe Illustrator 28.2.0, SVG Export Plug-In . SVG Version: 6.00 Build 0)  -->
<svg version="1.1" id="Layer_2_00000079453380050554632120000006001658191689800086_"
	 xmlns="http://www.w3.org/2000/svg" xmlns:xlink="http://www.w3.org/1999/xlink" x="0px" y="0px" viewBox="0 0 38.7 42.7"
	 style="enable-background:new 0 0 38.7 42.7;" xml:space="preserve">
<style type="text/css">
	.st0{fill:#F7941D;}
	.st1{fill:#35180C;stroke:#34190F;stroke-width:2;stroke-linecap:round;stroke-miterlimit:10;}
	.st2{fill:none;stroke:#34190F;stroke-width:2;stroke-linecap:round;stroke-miterlimit:10;}
</style>
<path class="st0" d="M19.5,0c3.2,0,5.6,0.7,7,1.2c2.1,0.7,4.3,1.4,6.4,3.2c3.4,2.9,4.3,6.8,5,9.6c1,4,0.7,7.1,0.4,10.6
	c-0.4,4.4-0.6,7.2-2.4,10.4c-0.8,1.5-2.8,5-6.6,6.4c-0.8,0.3-1.8,0.4-3.8,0.6c-4.9,0.5-7.3,0.8-10.1,0c-2.8-0.8-4.7-2.3-5.6-3
	c-2.1-1.7-3.1-3.3-5.2-6.6c-2.6-4.1-3.9-6.2-4.4-9.2c-0.5-2.7-0.2-5,0-6.6c0.2-1.9,0.4-3.7,1.4-5.8C3,7.9,5,6.1,5.9,5.2
	c2.4-2.1,4.6-3.1,6-3.6C13.2,1.1,15.9,0,19.5,0z"/>
<path class="st1" d="M8.9,8.6c-0.3,0-0.5,0.3-0.6,0.6c-0.1,0.3,0,0.6,0.2,0.8c0.2,0.2,0.5,0.4,0.9,0.3c0.3-0.1,0.5-0.4,0.5-0.7
	C9.9,9,9.4,8.5,8.9,8.6L8.9,8.6z"/>
<path class="st1" d="M31.4,9.1c-0.3,0-0.5,0.3-0.6,0.6c-0.1,0.3,0,0.6,0.2,0.8c0.2,0.2,0.5,0.4,0.9,0.3c0.3-0.1,0.5-0.4,0.5-0.7
	C32.4,9.6,31.9,9,31.4,9.1L31.4,9.1z"/>
<path class="st2" d="M15.3,12.6c-0.1,0.3-0.1,0.9,0.1,1.4c0.1,0.2,0.2,0.4,1.2,1.2c0.9,0.7,1.3,1,1.8,1.2c0.5,0.2,1,0.2,1.6,0.3
	c0.8,0.1,1.4,0.1,2.1-0.1c0.2-0.1,0.9-0.3,1.6-1c0.5-0.5,0.7-1,0.8-1.2c0.2-0.4,0.3-0.9,0.3-1.1"/>
</svg>
