<?xml version="1.0" encoding="UTF-8"?><svg id="Layer_2" xmlns="http://www.w3.org/2000/svg" viewBox="0 0 38.73 42.7"><defs><style>.cls-1{fill:#35180c;}.cls-1,.cls-2{stroke:#34190f;stroke-linecap:round;stroke-miterlimit:10;stroke-width:2px;}.cls-2{fill:none;}.cls-3{fill:#f7941d;stroke-width:0px;}</style></defs><g id="Layer_1-2"><path class="cls-3" d="M19.55,0c3.19-.03,5.56.72,7.03,1.21,2.08.68,4.33,1.42,6.43,3.22,3.38,2.89,4.32,6.76,5.02,9.65.97,3.99.71,7.1.4,10.65-.37,4.35-.62,7.18-2.41,10.45-.83,1.51-2.76,5.03-6.63,6.43-.77.28-1.79.39-3.82.6-4.89.52-7.33.78-10.05,0-2.83-.81-4.71-2.28-5.63-3.01-2.06-1.65-3.14-3.33-5.23-6.63C2.09,28.45.79,26.39.26,23.32c-.47-2.71-.19-5.02,0-6.63.23-1.88.44-3.67,1.41-5.83,1.35-3.01,3.31-4.81,4.22-5.63,2.36-2.12,4.64-3.06,6.03-3.62C13.22,1.09,15.9.04,19.55,0Z"/><path class="cls-1" d="M8.75,8.52c-.22.08-.55.19-.67.5-.11.28.01.55.08.71.05.1.2.46.58.63.4.18.98.13,1.21-.21.14-.21.09-.46,0-.92-.08-.38-.12-.58-.29-.71-.29-.22-.72-.07-.92,0Z"/><path class="cls-1" d="M31.39,9.11c-.3.04-.54.31-.63.58-.09.3-.02.61.17.83.18.22.52.4.88.29.34-.11.52-.43.54-.71.04-.52-.47-1.07-.96-1Z"/><path class="cls-2" d="M15.34,12.61c-.07.33-.14.85.08,1.38.08.2.23.44,1.25,1.25.86.68,1.29,1.02,1.79,1.21.55.21.99.24,1.58.29.82.07,1.41.11,2.13-.13.21-.07.93-.33,1.58-1,.49-.5.72-1,.79-1.17.19-.45.26-.85.29-1.13"/></g></svg>