<?xml version="1.0" encoding="utf-8"?>
<!-- Generator: Adobe Illustrator 28.2.0, SVG Export Plug-In . SVG Version: 6.00 Build 0)  -->
<svg version="1.1" id="Layer_1" xmlns="http://www.w3.org/2000/svg" xmlns:xlink="http://www.w3.org/1999/xlink" x="0px" y="0px"
	 viewBox="0 0 283.5 425.2" style="enable-background:new 0 0 283.5 425.2;" xml:space="preserve">
<style type="text/css">
	.st0{fill:#F7A400;}
	.st1{fill:#36161C;stroke:#35181E;stroke-linecap:round;stroke-miterlimit:10;}
	.st2{fill:#36161C;stroke:#35181E;stroke-width:2;stroke-linecap:round;stroke-miterlimit:10;}
	.st3{fill:#35181E;}
	.st4{fill:#36161C;}
</style>
<path class="st0" d="M73.5,97c12.1-0.8,21.3,1.5,27,3c8.1,2.1,16.8,4.4,25.2,10.8c13.5,10.2,17.9,24.7,21.2,35.6
	c4.6,15,4.3,26.8,3.9,40.4c-0.5,16.6-0.8,27.4-6.9,40.3c-2.8,5.9-9.4,19.8-23.8,25.9c-2.9,1.2-6.7,1.9-14.4,3.1
	c-18.5,3.1-27.7,4.6-38.2,2.2c-10.9-2.4-18.4-7.6-22.1-10.2c-8.2-5.8-12.7-12-21.3-24.1C13.4,209.1,8,201.6,5.3,190
	c-2.4-10.2-1.8-19.1-1.5-25.2c0.4-7.2,0.9-14.1,4.1-22.5c4.5-11.7,11.5-19,14.8-22.3c8.5-8.6,17-12.7,22.1-15.1
	C49.7,102.6,59.6,98,73.5,97L73.5,97z"/>
<path class="st1" d="M96.7,129c-1-0.5-2.3-0.3-3.2,0.4c-1,0.7-1.4,1.8-1.3,2.9c0.1,1.1,0.7,2.4,2.1,2.9c1.3,0.4,2.6-0.2,3.3-1
	C98.7,132.8,98.4,129.9,96.7,129z"/>
<path class="st1" d="M42.2,135.9c-0.9,0.7-1.3,2-1.1,3.1c0.2,1.2,1,2.1,2,2.5c1,0.4,2.5,0.4,3.5-0.6c0.9-0.9,1-2.4,0.6-3.4
	C46.4,135.7,43.8,134.7,42.2,135.9L42.2,135.9z"/>
<path class="st0" d="M216.3,190.9c7.9,0.3,13.7,2.1,21.1,4.5c7,2.3,11.3,3.7,16.5,7c8.1,5.2,12.6,11.4,15.5,15.5
	c3.4,4.7,7.5,10.5,9.5,19c2,8.6,0.8,15.3-1,25.6c-1.1,6.4-2.6,14-7,23.1c-0.8,1.6-4.6,9.3-12,17.5c-6.5,7.3-13.1,12-18,15.5
	c-2.1,1.5-5,3.6-7.5,5c-16.6,9.4-38.7,1.9-41.1,1c-16.6-5.9-25.6-17.6-33.6-28.1c-4.6-6-9.8-12.9-12.5-23.6
	c-2.7-10.3-1.7-18.9-1-24.1c0.7-5.8,2-15,8-25.1c6.2-10.4,14.1-15.9,18.5-19c9.1-6.3,17.3-8.8,23.1-10.5
	C201,192.5,207.5,190.6,216.3,190.9L216.3,190.9z"/>
<path class="st2" d="M169.3,253.6c-0.9,0.3-1.2,1.1-1.3,1.4c-0.1,0.3-0.5,1.2,0,2c0.5,0.9,1.7,1.4,2.6,1c1.1-0.5,1.1-1.9,1.1-2.2
	c0-0.4,0-1.3-0.7-1.9C170.5,253.5,169.9,253.4,169.3,253.6L169.3,253.6z"/>
<path class="st2" d="M201,258c-0.3,0.1-1.3,0.5-1.8,1.6c-0.1,0.2-0.7,1.6,0.1,2.5c0.7,0.8,1.9,0.8,2.5,0.7c0.6,0,1.5-0.1,2.2-0.9
	c0.6-0.6,0.9-1.7,0.5-2.6c-0.4-0.9-1.3-1.2-1.5-1.3C202.1,257.7,201.2,258,201,258L201,258z"/>
<path class="st3" d="M56.5,157.1c2.3,3.1,5.6,4.8,9.1,6.1c3.9,1.4,8,2,12.1,1.3c7.1-1.1,12.4-6.5,14.6-13.1c0.7-2.1-2.7-3-3.4-0.9
	c-1.8,5.4-6,9.6-11.6,10.6c-3.2,0.6-6.6,0.1-9.7-0.9c-3-0.9-6.3-2.3-8.2-4.9C58.2,153.6,55.2,155.3,56.5,157.1L56.5,157.1
	L56.5,157.1z"/>
<path class="st3" d="M170.4,274.1c1.3,5.5,6.1,9.9,11.7,10.7c5.6,0.7,11.4-2.3,14-7.3c1-2-1.9-3.7-3-1.8c-2,3.8-6.3,6.2-10.6,5.6
	c-4.3-0.5-7.8-4-8.8-8.2C173.3,270.9,169.9,271.9,170.4,274.1L170.4,274.1L170.4,274.1z"/>
<path class="st0" d="M118.3,263.1c4.7,0.5,8,2.1,10.1,3.1c2.9,1.4,6.1,2.9,8.8,5.9c4.4,4.9,5.1,10.7,5.6,15.1
	c0.7,6-0.3,10.5-1.4,15.7c-1.3,6.3-2.2,10.4-5.5,14.9c-1.5,2.1-5,6.9-10.9,8.2c-1.2,0.3-2.7,0.2-5.7,0.2c-7.2-0.2-10.9-0.2-14.7-1.9
	c-4-1.7-6.5-4.2-7.7-5.5c-2.7-2.8-4-5.5-6.4-10.7c-3-6.5-4.5-9.7-4.8-14.4c-0.2-4.1,0.7-7.4,1.2-9.7c0.7-2.7,1.3-5.3,3.1-8.3
	c2.5-4.2,5.7-6.4,7.2-7.5c3.8-2.7,7.4-3.6,9.5-4.2C108.8,263.6,112.9,262.5,118.3,263.1L118.3,263.1z"/>
<path class="st2" d="M102.8,274.8c-0.3,0-0.7,0.1-1,0.4c-0.2,0.3-0.2,0.7-0.1,0.9c0,0.1,0.1,0.6,0.5,0.9c0.4,0.3,1.2,0.5,1.5,0.1
	c0.2-0.2,0.3-0.5,0.3-1.1c0-0.5,0-0.7-0.1-0.9C103.7,274.7,103.1,274.8,102.8,274.8L102.8,274.8z"/>
<path class="st2" d="M132.5,282.2c-0.4-0.1-0.9,0.3-1.1,0.6c-0.3,0.4-0.3,0.9-0.1,1.3c0.2,0.4,0.6,0.8,1.1,0.7c0.5,0,0.9-0.4,1-0.8
	C133.7,283.2,133.2,282.3,132.5,282.2L132.5,282.2z"/>
<path class="st3" d="M108,285c-0.2,3.7,2.6,7.3,6.3,7.9c3.7,0.6,7.4-1.9,8.4-5.4c0.3-1.1-1.4-1.5-1.7-0.5c-0.8,2.7-3.7,4.6-6.4,4.2
	c-2.8-0.4-5-3.3-4.8-6.2C109.8,283.9,108.1,283.9,108,285L108,285L108,285z"/>
<path class="st4" d="M48.2,281.7c-0.2,0.4-0.5,0.5-1,0.4c-0.6-0.1-0.9-0.5-0.6-1.2l1.5-7.3l-2.8,2.1c-0.5,0.4-1,0.6-1.2,0.5
	c-0.2,0-0.4-0.1-0.5-0.3c-0.2-0.2-0.4-0.4-0.6-0.8l-1.5-2.8l-1.6,7.7c-0.1,0.2-0.4,0.3-0.9,0.1c-0.5-0.1-0.8-0.3-0.7-0.7l2-9.3
	c0-0.2,0.1-0.3,0.2-0.4c0.1-0.1,0.2-0.1,0.3-0.2c0.2,0,0.3,0,0.5,0c0.1,0.1,0.2,0.1,0.3,0.2l2.9,4.8l3.8-2.8
	c0.7-0.6,1.2-0.8,1.4-0.7c0.4,0,0.6,0.3,0.7,0.8L48.2,281.7L48.2,281.7z"/>
<path class="st4" d="M57.6,293.1c0,0.2,0,0.4-0.2,0.5c-0.2,0.1-0.4,0.2-0.6,0.2c-0.2,0-0.4,0-0.6-0.1c-0.2-0.1-0.3-0.2-0.3-0.4
	l-0.6-3.4l-4.1-0.8l-1.8,3c-0.2,0.2-0.3,0.3-0.5,0.4c-0.2,0.1-0.5,0.1-0.7,0c-0.2-0.1-0.4-0.2-0.5-0.4c-0.1-0.2-0.1-0.4,0-0.7
	l6-10.3c0.4-0.7,0.8-1,1.3-0.9c0.3,0.1,0.5,0.5,0.6,1.4L57.6,293.1L57.6,293.1z M51.8,287.6l3.4,0.6l-0.8-5.1L51.8,287.6L51.8,287.6
	z"/>
<path class="st4" d="M68.7,280.8c-0.1,0.3-0.2,0.4-0.3,0.5c-0.4,0-0.8,0-1.1-0.2l-2.3-1c-0.3,1-0.8,2.1-1.2,3.4
	c-0.5,1.3-1,2.8-1.6,4.5c-0.2,0.7-0.6,0.9-1.1,0.7c-0.5-0.2-0.7-0.7-0.4-1.5l2.7-7.8l-2.5-1c-0.4-0.2-0.6-0.4-0.8-0.6
	c-0.2-0.2-0.2-0.3-0.1-0.6c0.1-0.2,0.3-0.3,0.5-0.4c0.2-0.1,0.4-0.1,0.7,0l7.4,3C68.8,280,68.9,280.3,68.7,280.8L68.7,280.8z"/>
<path class="st4" d="M69.8,300.1c-0.2,0.8-0.7,1.5-1.4,1.9c-0.7,0.4-1.7,0.5-2.9,0.3c-1.3-0.3-2.2-0.6-2.7-0.9
	c-0.3-0.2-0.5-0.3-0.7-0.5c-0.2-0.1-0.4-0.3-0.5-0.4c-0.3-0.2-0.5-0.5-0.5-0.9c0.1-0.2,0.2-0.4,0.4-0.6c0.2-0.2,0.4-0.2,0.6-0.1
	c0.5,0.6,1.7,1.2,3.5,1.8c1.2,0.2,2-0.2,2.5-1.1c0.2-0.6,0-1.3-0.7-1.9c-0.2-0.2-0.4-0.4-0.7-0.8c-0.3-0.3-0.7-0.7-1.1-1.2
	c-0.3-0.4-0.6-0.8-0.8-1.3c-0.3-0.6-0.3-1.2-0.2-1.9c0.5-1.9,1.8-2.7,3.8-2.4c1.4,0.3,2.5,0.9,3.2,1.7c0.1,0.2,0.2,0.4,0.3,0.6
	c0.1,0.3,0.1,0.4,0,0.5c-0.2,0.3-0.4,0.5-0.7,0.4c-0.2,0-0.3-0.1-0.5-0.3c-0.7-0.7-1.6-1.2-2.5-1.4c-0.6-0.1-1.1-0.1-1.3,0.2
	c-0.3,0.2-0.5,0.5-0.6,0.9c-0.1,0.3,0,0.6,0.1,0.9c0.1,0.4,0.3,0.6,0.4,0.8c0.2,0.2,0.4,0.4,0.7,0.7c0.3,0.3,0.6,0.6,1,1
	c0.5,0.4,1,1,1.3,1.7C69.9,298.8,70,299.5,69.8,300.1L69.8,300.1z"/>
</svg>
